<?xml version="1.0" encoding="UTF-8"?>
<svg xmlns="http://www.w3.org/2000/svg" xmlns:xlink="http://www.w3.org/1999/xlink" width="32px" height="32px" viewBox="0 0 32 32" version="1.1">
<g id="surface1">
<path style=" stroke:none;fill-rule:nonzero;fill:rgb(0%,0%,0%);fill-opacity:1;" d="M 17.960938 4.378906 C 17.917969 4.398438 17.859375 4.457031 17.832031 4.511719 C 17.753906 4.675781 17.828125 4.859375 18.125 5.25 C 18.523438 5.769531 18.597656 5.96875 18.480469 6.195312 C 18.453125 6.253906 18.261719 6.523438 18.0625 6.796875 C 17.226562 7.9375 16.191406 9.507812 15.953125 10.007812 C 15.6875 10.558594 15.640625 10.914062 15.640625 12.367188 C 15.640625 12.957031 15.636719 13.4375 15.632812 13.4375 C 15.609375 13.4375 14.796875 12.460938 14.582031 12.171875 C 13.832031 11.175781 13.617188 10.714844 13.6875 10.265625 C 13.742188 9.917969 14.1875 8.683594 14.425781 8.210938 C 14.472656 8.121094 14.589844 7.910156 14.695312 7.742188 C 14.898438 7.398438 14.929688 7.292969 14.871094 7.148438 C 14.726562 6.789062 13.898438 5.882812 13.363281 5.507812 C 12.945312 5.210938 12.71875 5.113281 12.449219 5.101562 C 12.25 5.085938 12.21875 5.09375 12.15625 5.15625 C 12.097656 5.214844 12.085938 5.253906 12.101562 5.417969 C 12.109375 5.585938 12.15625 5.703125 12.507812 6.429688 C 12.726562 6.882812 12.90625 7.289062 12.90625 7.335938 C 12.90625 7.386719 12.8125 7.597656 12.695312 7.8125 C 12.457031 8.257812 12.027344 9.164062 11.753906 9.804688 C 11.519531 10.351562 11.476562 10.578125 11.523438 10.945312 C 11.570312 11.292969 11.648438 11.523438 11.886719 12.015625 C 12.132812 12.519531 12.425781 12.972656 13.050781 13.835938 C 13.664062 14.679688 13.851562 14.964844 14 15.289062 C 14.164062 15.644531 14.203125 15.835938 14.199219 16.21875 C 14.195312 16.710938 13.804688 19.601562 13.710938 19.792969 C 13.675781 19.878906 13.664062 19.882812 13.5 19.867188 C 13.296875 19.847656 12.355469 19.554688 11.84375 19.351562 C 11.152344 19.082031 10.492188 18.695312 9.859375 18.203125 C 9.285156 17.75 9 17.601562 8.800781 17.636719 C 8.667969 17.664062 8.625 17.710938 8.601562 17.867188 C 8.523438 18.453125 9.390625 19.492188 10.703125 20.382812 C 11.460938 20.898438 12.5 21.449219 14.078125 22.175781 C 14.523438 22.378906 14.921875 22.574219 14.960938 22.609375 C 15.023438 22.664062 15.058594 22.765625 15.144531 23.128906 C 15.199219 23.375 15.246094 23.617188 15.25 23.660156 C 15.25 23.730469 15.1875 23.773438 14.625 24.09375 C 13.757812 24.585938 13.480469 24.824219 13.507812 25.066406 C 13.535156 25.359375 13.957031 25.402344 15.5 25.261719 L 15.703125 25.246094 L 15.792969 25.414062 C 15.984375 25.765625 16.308594 26.214844 16.5625 26.472656 C 16.914062 26.828125 17.183594 26.96875 17.570312 26.992188 C 17.894531 27.011719 18.097656 26.96875 18.382812 26.820312 C 18.746094 26.632812 19.039062 26.242188 19.144531 25.792969 C 19.210938 25.507812 19.210938 24.886719 19.144531 24.53125 C 19.117188 24.382812 19.085938 24.1875 19.074219 24.09375 L 19.054688 23.921875 L 19.382812 23.71875 C 20.464844 23.035156 20.855469 22.570312 20.488281 22.394531 C 20.304688 22.308594 19.726562 22.347656 18.894531 22.5 C 18.703125 22.535156 18.539062 22.5625 18.527344 22.5625 C 18.480469 22.5625 18.179688 21.578125 18.195312 21.496094 C 18.207031 21.457031 18.304688 21.316406 18.414062 21.1875 C 18.933594 20.578125 19.621094 19.6875 20.070312 19.046875 C 21.0625 17.625 21.90625 15.597656 22.097656 14.164062 C 22.144531 13.8125 22.117188 13.203125 22.050781 12.976562 C 22.023438 12.890625 21.957031 12.773438 21.90625 12.71875 C 21.820312 12.628906 21.796875 12.617188 21.683594 12.632812 C 21.441406 12.664062 21.351562 12.820312 21.234375 13.414062 C 21.121094 13.980469 21.023438 14.257812 20.753906 14.789062 C 19.976562 16.324219 18.910156 17.8125 18.589844 17.8125 C 18.441406 17.8125 18.375 17.375 18.375 16.371094 C 18.375 15.191406 18.3125 14.503906 18.078125 13.09375 C 18.003906 12.636719 17.925781 12.152344 17.902344 12.015625 C 17.882812 11.878906 17.863281 11.519531 17.863281 11.21875 C 17.859375 10.746094 17.867188 10.648438 17.921875 10.5 C 17.992188 10.304688 18.203125 9.921875 18.445312 9.546875 C 19.074219 8.554688 19.726562 7.375 20.203125 6.347656 C 20.585938 5.523438 20.589844 5.378906 20.226562 5.078125 C 19.875 4.789062 19.242188 4.496094 18.738281 4.394531 C 18.476562 4.335938 18.09375 4.332031 17.960938 4.378906 Z M 17.960938 4.378906 "/>
</g>
</svg>
